<svg xmlns="http://www.w3.org/2000/svg" width="400" height="600" viewBox="503.986 46.979 882.029 1323.043">
  <defs>
    <style>
      .cls-1 {
        fill-rule: evenodd;
      }
    </style>
  </defs>
  <path id="full_diamond_shape" data-name="full diamond shape" class="cls-1" d="M942,71h4c2.526,4.673,6.694,9.642,9,14,2.212,7.078,11.623,23.455,13,27,1.356,5.877,8.523,18.588,10,22,2.011,4.647,8.887,17.316,11,22,1.938,6.783,9.781,19.329,11,22-1.716-3.759,12.52,29.779,22,48,1.54,5.015,10.14,19.62,12,24,1.11,4.805,8.82,19.958,11,25,1.27,4.667,8.28,15.852,10,19s7.83,18.973,12,25c0.64,3.2,7.4,16,10,22,2.38,5.5,7.23,16.341,9,19,4.65,6.992,23.67,49.273,24,50,1.94,6.782,9.78,19.329,11,22,2.57,5.62,20.29,44.294,22,48,19.3,41.929,41,88.232,35,73,1.56,3.965,8.87,16.518,11,22,0.67,3.008,7.51,14.143,10,20,1.27,5.909,9.09,20.578,11,25,2.43,5.641,9.55,18.627,11,22,2.43,5.65,9.69,18.636,11,22,0.84,5.064,7.64,17.51,10,22,1.55,2.953,8.69,22.38,8,25-0.74,2.81-3.94,5.49-5,8-2.81,6.657-9.66,19.027-11,22-2.13,7.447-8.76,17.873-10,20-1.24,5.792-8.74,20.714-11,25-1.17,4.273-7.8,16.5-10,20-2.99,4.758-9,18.781-11,22-2.35,8.455-11.64,25.819-13,29-2.21,5.171-8.24,16.66-10,20-3.6,12.6-17.91,40.1-22,47-0.87,3.18-8.85,17.811-12,24-2.7,5.3-9.56,18.7-11,22-0.72,4.323-8.12,18.6-11,25-1.94,6.78-9.78,19.33-11,22-1.94,6.78-9.81,19.34-11,22-1.38,6.43-8.12,19.85-10,23-1.9,6.66-9.44,19.39-11,22-1.01,3.7-8.5,17.17-11,22-1.12,5.23-9.48,21.39-12,27-2.28,5.07-8.01,16.66-10,20-1.97,3.31-7.86,18.48-12,24-1.37,6.4-8.16,19.89-10,23-1.97,5.91-11.24,22.89-13,27-1.55,3.63-8.023,15.01-10,19-1.391,6.96-9.228,21.14-11,25-2.041,4.44-8.675,17.5-11,22-1.847,3.58-9.643,18.28-12,25-3.3,9.41-5.316,27.06-16,28-1.646-7.29-6.122-11.48-9-17-2.208-4.23-9.306-23.84-13-30-5.186-12.05-25.879-54.1-22-44-1.228-3.4-2.545-6.69-4-10q-3.154-7.17-7-14c-2.453-5.64-9.532-18.62-11-22-3.4-7.83-10.162-20.02-11-22-0.221-1.1-7.446-18.56-9-21-5.1-7.99-13.021-26.22-12-24-1.938-6.78-9.776-19.33-11-22-1.376-6.42-8.063-19.86-10-23-1.849-3-7.93-17.02-11-22-1.855-3.01-8.018-16.99-11-22a0.9,0.9,0,0,0,.142.17c0.2-.1-7-15.69-8.142-18.17-4.357-9.44-10.132-22.04-13-28-4.554-9.464-9.149-18.654-14-28-1.2-5.18-8.938-19.42-11-24-3.461-7.685-10.109-20.021-11-22-3.46-7.686-10.127-20.027-11-22-1.259-5.874-9.029-20.621-11-25-3.46-7.686-10.123-20.026-11-22-2.09-3.011-17.534-37.835-20-43-2.426-5.083-9-18.759-11-22-2.148-3.489-9.16-20.454-13-26-6.091-14.112-24.914-52.75-27-62-1.3-5.75,2.67-10.479,4-14,5.529-14.642,11.46-27.87,19-40,2.395-3.853,10.3-19.717,13-25,1.244-5.391,8.353-19.347,10-23,2.907-6.446,9.491-19.107,11-22,2.233-4.279,8.318-17.5,11-22,3.37-5.657,9.5-21.65,11-25,47.072-104.811,100.587-204.265,146-310,2.375-5.531,10.841-19.977,12-25,2.08-4.1,9.9-21.973,13-27,2.62-4.251,8.473-17.164,10-20,3.1-5.757,9.389-18.946,10-22,2.378-5.529,9.272-20.152,11-24,2.076-4.623,9.022-17.4,11-22C934.785,83.529,939.883,78.978,942,71Z"/>
</svg>
