<svg xmlns="http://www.w3.org/2000/svg" width="300" height="600" viewBox="614.239 46.979 661.521 1323.043">
  <defs>
    <style>
      .cls-1 {
        fill-rule: evenodd;
      }
    </style>
  </defs>
  <path id="hollow_diamond_shape" data-name="hollow diamond shape" class="cls-1" d="M944.133,50.76c2.174,0.39,2.015.254,3.142,1.047,3.019,3.452,2.9,8.148,5.237,12.568,1.38,2.611,4.975,4.82,6.284,7.332,2.146,4.121,1.225,8.316,3.142,12.568,1.6,3.547,5.731,6.774,7.331,10.474,1.889,4.366,1.19,8.235,3.142,12.568,4.832,10.726,14.18,22.642,18.853,33.516,1.79,4.165,1.1,7.6,3.142,11.521,1.351,2.595,5.048,5.617,6.284,8.379,1.91,4.263,1,8.436,3.14,12.568,1.24,2.4,4.86,5.009,6.29,7.331q3.135,8.379,6.28,16.758c4.5,6.96,12.73,20.644,15.71,28.279l2.1,10.473c1.83,4.232,6.53,7.424,8.37,11.521,2.13,4.722,1.57,9.554,4.19,13.616,1.53,2.363,5.04,4.559,6.29,7.331,0.7,3.142,1.39,6.285,2.09,9.427,1.68,3.912,5.68,7.682,7.33,11.52,1.85,4.289,1,8.447,3.15,12.569,1.5,2.885,5.83,5.492,7.33,8.379,2.13,4.1,1.01,8.472,3.14,12.568,1.5,2.885,5.83,5.492,7.33,8.379,2.14,4.125,1.23,8.311,3.14,12.568,1.6,3.547,5.74,6.773,7.33,10.474l2.1,10.473c1.2,3.051,4.68,5.788,6.28,8.379,2.47,3.99,2.17,7.907,4.19,12.568,2.2,5.066,7.21,9.481,9.43,14.663q1.575,5.76,3.14,11.521c1.88,3.232,5.91,6.828,7.33,10.474l2.1,10.473c1.46,2.84,5.85,5.681,7.33,8.379q1.05,4.713,2.09,9.426c2.22,5.18,7.23,9.6,9.43,14.663,4.72,10.882,6.64,19.116,11.52,30.374,1.56,3.6,5.46,6.285,7.33,9.426q1.575,5.76,3.14,11.521c1.57,3.6,5.47,6.284,7.34,9.426q1.56,5.76,3.14,11.521c1.67,3.913,5.67,7.683,7.33,11.521,2.41,5.6,2.16,10.974,5.24,15.71,1.07,1.654,4.29,3.43,5.23,5.237,2.77,5.333,2.18,10.993,5.24,15.71,1.07,1.653,4.3,3.43,5.24,5.237,2.14,4.129,1.23,8.3,3.14,12.568,1.55,3.48,5.78,6.993,7.33,10.474q1.05,5.236,2.09,10.473c1.73,4.412,6.25,8.32,8.38,12.569q2.1,6.284,4.19,12.568c1.99,3.25,5.73,6.7,7.33,10.474,2.05,4.81,1.66,9.462,4.19,13.615,1.58,2.593,5.1,5.328,6.29,8.379q1.05,5.236,2.09,10.474c3.46,7.571,8.22,7.959,8.38,20.947-9.97,10.874-15.63,29.338-21.99,43.989-1.63,3.751-5.73,6.712-7.33,10.473-2.18,5.1-1.44,10.386-4.19,14.663-1.53,2.363-5.04,4.56-6.29,7.332-2.12,4.722-1.57,9.553-4.19,13.615-1.52,2.363-5.04,4.559-6.28,7.332-1.92,4.262-1.01,8.43-3.14,12.568-1.69,3.272-5.77,6.757-7.34,10.474q-1.035,5.236-2.09,10.473c-1.79,3.974-6.55,7.285-8.38,11.521q-1.05,4.713-2.09,9.426c-40.24,77.82-77.09,157.637-114.17,238.8-1.23,2.7-4.77,4.89-6.28,7.33-2.55,4.14-2.03,8.89-4.19,13.62-1.23,2.69-4.78,4.88-6.28,7.33-2.55,4.14-2.13,8.82-4.19,13.61-1.94,4.5-6.42,9-8.38,13.62q-1.575,5.76-3.14,11.52c-1.8,3.05-5.84,6.08-7.33,9.43l-2.1,9.42c-1.8,4.01-6.6,7.51-8.38,11.52q-1.05,5.25-2.09,10.48c-1.56,3.71-5.65,7.2-7.33,10.47-2.13,4.15-1.23,8.31-3.15,12.57-1.24,2.77-4.75,4.97-6.28,7.33-2.62,4.06-2.07,8.9-4.19,13.62-1.547,3.43-5.6,6.15-7.332,9.42q-2.094,7.335-4.189,14.67c-8.032,15.61-17.326,33.29-26.184,48.17-5.21,8.76-9.371,36.45-19.9,37.71-2.071-3.39-5.828-6.57-7.331-10.47-2.231-5.8-1.3-10.99-4.19-15.71-5.253-8.61-12.779-20.19-16.757-29.33-2.027-4.66-1.719-8.58-4.19-12.57-1.046-1.69-4.338-3.59-5.237-5.24q-1.571-7.32-3.142-14.66c-1.132-2.78-4.822-4.99-6.284-7.33q-1.57-5.76-3.142-11.52c-1.838-4.24-6.562-7.55-8.379-11.52-2.163-4.73-1.643-9.48-4.189-13.62-1.5-2.44-5.073-4.63-6.284-7.33q-1.571-7.335-3.142-14.66c-1.126-2.08-5.129-4.22-6.284-6.29-2.194-3.92-1.014-8.43-3.142-12.56-1.491-2.9-5.806-5.5-7.332-8.38-2.113-3.99-1.007-8.43-3.142-12.57-1.487-2.89-5.836-5.5-7.332-8.38q-1.571-6.81-3.142-13.62c-4.452-10.57-12.53-22.35-17.8-32.46q-2.094-6.285-4.189-12.57c-1.926-3.26-5.747-6.71-7.332-10.48l-2.094-10.47c-1.91-4.53-6.47-8.19-8.379-12.57-2.349-5.39-2.232-10.11-5.237-14.66q-2.094-1.575-4.189-3.14c-0.7-3.14-1.4-6.29-2.1-9.43-1.834-4.28-6.391-7.87-8.379-11.52q-1.571-7.335-3.142-14.66c-1.446-3.7-5.774-6.04-7.331-9.43q-1.049-4.71-2.1-9.425c-1.56-3.6-5.442-6.4-7.332-9.426L757.7,978.718c-1.559-3.6-5.449-6.4-7.331-9.426-2.941-4.726-1.433-11.643-4.19-16.758-0.882-1.638-4.2-3.559-5.236-5.237-2.473-3.982-2.166-7.909-4.19-12.568-1.534-3.531-5.682-6.409-7.331-9.426-2.859-5.23-2.189-11.017-5.237-15.711-1.073-1.652-4.3-3.43-5.237-5.236-3.033-5.868-1.872-13.592-5.237-18.853-5.873-9.185-13.467-21.312-17.805-31.42-1.3-3.033-.531-5.731-2.094-8.379-1.9-3.225-5.884-6.684-7.332-10.474-1.845-4.828-.665-9.627-3.142-13.616-5.305-8.541-13.791-21.094-17.805-30.373-1.78-4.114-1.023-7.706-3.142-11.521-1.671-3.007-5.943-5.826-7.332-9.426l-2.094-11.521c-1.214-2.766-4.818-4.971-6.285-7.331q-1.571-5.76-3.142-11.521c-3.752-8.778-11.683-17.948-14.663-28.279-2.92-10.126,12.939-31.18,15.711-39.8,3.077-9.57,6.762-11.313,9.426-17.806,2.168-5.284,1.407-9.337,4.189-13.615,1.517-2.333,5.141-4.544,6.285-7.332,2.163-5.272,1.376-9.369,4.189-13.615,1.223-1.846,4.225-3,5.237-5.237l3.142-14.663c0.926-1.807,4.163-3.588,5.237-5.237,3.067-4.712,2.464-10.383,5.236-15.71,0.941-1.808,4.16-3.583,5.237-5.237,2.543-3.9,2.178-7.94,4.19-12.568,1.619-3.726,5.55-6.961,7.331-10.474l4.189-15.71c1.379-2.624,4.949-4.819,6.285-7.332,2.064-3.883,1.287-7.415,3.142-11.521,1.5-3.32,5.7-6.337,7.331-9.426,2.057-3.892,1.287-7.411,3.142-11.521,1.89-4.184,6.506-8.112,8.379-12.568q1.047-5.237,2.1-10.474c1.295-3.04,4.679-5.757,6.284-8.378q2.618-7.332,5.237-14.663c4.871-9.046,12.2-20.208,16.757-29.326q1.048-5.76,2.1-11.521c1.7-4.415,6.195-7.777,8.379-11.521,2.891-4.956,2.27-11.142,5.237-15.711,1.074-1.653,4.3-3.43,5.237-5.236,2.364-4.55,1.663-9.509,4.189-13.616,1.5-2.44,5.074-4.634,6.284-7.331q1.571-7.332,3.142-14.663c0.926-1.807,4.164-3.588,5.237-5.237,3.067-4.713,2.465-10.382,5.237-15.711,1.306-2.51,4.866-4.742,6.284-7.331,2.288-4.178,1.758-9.173,4.189-13.616,1.646-3.007,5.942-5.834,7.332-9.426q1.047-5.76,2.1-11.521c1.538-3.6,5.468-6.288,7.331-9.426l3.142-11.521c1.46-2.959,4.669-4.882,6.284-7.331,2.653-4.024,2.073-8.908,4.19-13.616,1.881-4.185,6.507-8.114,8.379-12.568l2.094-10.474c1.294-3.041,4.68-5.757,6.284-8.379q2.619-7.331,5.237-14.663c4.871-9.046,12.2-20.207,16.758-29.326q1.571-6.807,3.142-13.615c1.554-3.595,5.5-6.277,7.331-9.427q1.048-4.711,2.095-9.426c1.829-4.326,6.413-7.73,8.379-11.521q1.047-4.711,2.1-9.426c1.6-3.729,5.423-6.41,7.331-9.426q1.57-6.807,3.142-13.616c1.3-3.114,4.644-5.84,6.284-8.379C937.618,65.478,935.83,59.542,944.133,50.76Zm3.142,156.056c-1.236.841-1.761,0.81-4.19,1.048-2.681,3.643-8.036,5.687-10.473,9.426q-2.619,8.9-5.237,17.805c-5.081,9.845-13.43,21.364-17.8,31.421-1.693,3.892-1.342,7.009-3.142,10.473-1.921,3.7-5.821,7.584-7.332,11.521L897,300.031c-1.233,2.776-4.759,4.972-6.285,7.332l-5.236,15.71c-1.891,3.025-5.772,5.822-7.332,9.426l-3.142,11.521c-1.284,2.05-5.151,4.174-6.284,6.284l-3.142,14.663c-1.229,2.7-4.812,4.873-6.284,7.332-2.554,4.264-2.017,8.886-4.19,13.615-1.238,2.7-4.78,4.881-6.284,7.332q-2.617,7.854-5.237,15.71c-1.179,1.846-4.219,3.016-5.236,5.237-2.451,5.348-1.38,11.614-4.19,16.758-0.9,1.644-4.19,3.549-5.237,5.236-2.167,3.493-1.431,6.174-3.142,10.474-1.814,4.563-6.22,8.287-8.378,12.568-2.447,4.852-2.4,10.28-5.237,14.663-1.643,2.542-4.974,5.269-6.284,8.379q-1.048,5.236-2.095,10.474c-1.549,3.644-5.422,7.2-7.332,10.473-1.553,2.66-.788,5.344-2.094,8.379-3.06,7.112-6.952,12.734-10.474,20.947l-9.426,15.71q-1.047,5.76-2.1,11.521c-1.815,4.1-6.544,7.3-8.379,11.521q-1.57,5.76-3.142,11.521c-1.887,3.025-5.774,5.822-7.331,9.426l-3.142,11.521c-1.855,2.976-5.993,5.779-7.332,9.427-1.9,5.189-.553,9.455-3.142,13.615-9.941,15.977-22.316,37.345-28.278,56.557-2.833,9.127-15.71,17-10.474,32.468l9.426,13.616q1.047,4.713,2.1,9.426c0.941,1.808,4.16,3.583,5.237,5.237,3.561,5.47,3.412,12.562,6.284,18.853,1.66,3.635,5.677,7.664,7.331,11.52,1.993,4.647,1.659,8.652,4.19,12.569,1.646,2.547,4.947,5.276,6.284,8.379,1.662,3.859,1.123,7.17,3.142,10.473,1.961,3.209,5.875,6.681,7.331,10.474q0.525,4.188,1.048,8.379c1.743,4.52,6.243,8.461,8.379,12.568q1.571,5.76,3.142,11.521c1.235,2.7,4.775,4.884,6.284,7.331,2.549,4.135,2.024,8.887,4.189,13.616,1.816,3.965,6.709,7.215,8.379,11.521q1.047,5.76,2.1,11.521c1.853,4.186,6.473,8.138,8.379,12.568,1.659,3.858,1.116,7.178,3.142,10.474,1.048,1.705,4.311,3.582,5.237,5.236,2.127,3.8,1.352,7.419,3.142,11.521,1.97,4.517,6.515,7.762,8.378,12.569q1.048,5.759,2.1,11.52c1.113,2.693,4.8,4.928,6.284,7.332,2.529,4.1,1.823,9.069,4.19,13.616,1.307,2.51,4.865,4.741,6.284,7.331,2.309,4.217,1.823,9.07,4.189,13.616,1.968,3.782,6.693,7.132,8.379,11.522q0.523,4.185,1.048,8.38c3.709,9.66,11.37,21.65,16.757,30.37q3.143,8.385,6.284,16.76c1.961,3.21,5.877,6.68,7.332,10.47,0.349,2.79.7,5.59,1.047,8.38,1.74,4.52,6.245,8.46,8.379,12.57q1.571,5.76,3.142,11.52c1.234,2.7,4.777,4.88,6.284,7.33,2.548,4.14,2.027,8.89,4.19,13.62,1.233,2.69,4.784,4.88,6.284,7.33q3.141,9.945,6.284,19.9c1.4,1.05,2.793,2.09,4.189,3.14,8.368,14.67,12.144,46.94,33.516,47.13,1.069-.84.287-0.37,2.095-1.05,1.1-4.08,2.807-12.6,5.236-16.75,1.842-3.15,5.763-5.84,7.332-9.43q1.57-5.76,3.142-11.52c1.893-3.02,5.787-5.82,7.331-9.43q1.048-5.235,2.1-10.47c1.864-4.19,6.5-8.12,8.379-12.57,2.1-4.97,1.526-9.5,4.189-13.61,2.016-3.12,5.82-6.68,7.332-10.48,1.388-3.49.384-5.57,2.1-8.38,1.417-2.32,5.037-4.93,6.287-7.33,2.14-4.13,1.3-8.27,3.14-12.57q4.185-6.795,8.38-13.61c0.7-3.14,1.39-6.29,2.09-9.43,1.88-4.31,6.5-7.21,8.38-11.52,2.06-4.74,1.54-9.59,4.19-13.61,1.61-2.45,4.96-4.29,6.28-7.34,4.99-11.45,8.3-26.85,14.67-36.654,1.07-1.654,4.29-3.429,5.23-5.237,2.37-4.546,1.67-9.511,4.19-13.615,1.51-2.446,5.06-4.635,6.29-7.332q1.575-6.807,3.14-13.615c1.57-3.549,5.73-6.78,7.33-10.474l2.1-9.426c1.25-2.773,4.75-4.968,6.28-7.332,2.62-4.058,2.06-8.9,4.19-13.615,1.85-4.1,6.56-7.283,8.38-11.521l1.05-7.332c2.12-5.6,7.15-10.336,9.42-15.71l1.05-7.331c2-5.088,7.22-9.527,9.43-14.663,1.66-3.86,1.12-7.171,3.14-10.474,7.65-12.527,13.03-25.818,18.85-40.847,1.97-5.087,7.33-8.887,9.43-13.616,7.9-17.8,14.29-33.136,21.99-51.32,3.78-8.921,17.14-19.287,12.57-35.61-4.18-14.919-13.21-29.931-20.95-41.894q-2.61-7.856-5.23-15.711c-1.89-3.021-5.8-5.815-7.34-9.426-23.47-55.061-49.71-104.321-73.31-159.2-4.3-10-12.12-22.139-17.81-31.421q-3.135-8.9-6.28-17.8c-1.59-2.6-5.09-5.328-6.28-8.379-1.82-4.618-.83-8.68-3.15-12.568-1.87-3.142-5.76-5.83-7.33-9.426q-1.575-5.76-3.14-11.521c-1.87-3.142-5.77-5.83-7.33-9.426l-2.1-9.427c-1.58-3.531-5.86-6.737-7.33-10.473-2.47-6.294-1.87-11.693-5.23-16.758-1.23-1.848-4.21-3-5.24-5.237-2.54-5.509-2.12-11.011-5.24-15.71-1.22-1.848-4.208-3-5.235-5.237-1.95-4.241-1.009-8.431-3.142-12.568-1.358-2.634-5-5.4-6.284-8.379l-4.189-14.663c-1.291-2.061-5.125-4.169-6.285-6.284-2.211-4.033-1.219-8.364-3.142-12.568-1.431-3.131-5.781-5.551-7.331-8.379-2.208-4.028-1.313-8.322-3.142-12.568-1.653-3.836-5.687-7.6-7.332-11.521C953.788,216.226,956.3,211.141,947.275,206.816Z"/>
</svg>
