<svg xmlns="http://www.w3.org/2000/svg" width="400" height="600" viewBox="503.986 46.979 882.029 1323.043">
  <defs>
    <style>
      .cls-1 {
        fill-rule: evenodd;
      }
    </style>
  </defs>
  <path id="hollow_ellipse_shape" data-name="hollow ellipse shape" class="cls-1" d="M918.4,55.33c147.573-2.793,240.973,60.487,296.693,149.455,2.52,4.011,7.54,7.011,9.97,11.071q2.2,6.64,4.43,13.284c1.22,2.238,4.29,3.59,5.53,5.536q1.665,6.089,3.32,12.178c1.66,3.887,5.97,7.768,7.75,11.07q2.775,12.177,5.54,24.356c2.02,4.907,6.09,9.768,7.75,15.5q1.65,14.391,3.32,28.784c2.97,11.433,6,25.456,8.85,37.641v688.6l-9.96,46.5q-0.555,8.865-1.11,17.71c-1.8,6.84-6.47,11.94-8.85,17.72q-1.665,9.96-3.32,19.93c-1.81,4.68-6.87,8.66-8.86,13.28q-1.665,7.2-3.32,14.39c-1.08,2.39-4.16,3.59-5.54,5.54-3.22,4.55-3.45,10.68-6.64,15.5-1.5,2.26-5.13,4.23-6.64,6.64-31.06,49.64-70.01,84.16-119.57,115.14q-7.185,2.2-14.39,4.42c-3.5,1.82-6.45,6.18-9.96,7.75q-8.31,1.665-16.61,3.32-8.295,4.44-16.6,8.86-12.735,1.665-25.47,3.32c-9.39,2.67-21.317,6.51-31,8.86H935c-16.087,0-31.71.85-44.283-3.32-3.64-1.21-8.4-4.42-12.177-5.54q-13.837-1.65-27.677-3.32c-3.271-1.24-7.08-5.19-9.964-6.64q-11.624-2.775-23.249-5.54c-4-2.07-7.558-7.03-12.177-8.85-4.6-1.82-8.344-.92-12.178-3.32-2.194-1.38-4.4-5.38-6.643-6.65-4.921-2.77-9.853-2.56-14.392-5.53-53.964-35.33-95.135-84.67-125.1-143.92q-2.214-9.42-4.429-18.82c-1.436-3.36-5.207-6.61-6.642-9.97-3.464-8.09-1.854-17.05-4.428-26.57-1.717-6.34-5.964-11.98-7.75-17.71-4.392-14.09,1.441-31.43-2.214-47.6-5.709-25.27-2.214-61.7-2.214-90.784V677.506c0-78.689,2.224-144.047,2.214-222.522V336.527c2.587-10.932,6.974-20.391,9.964-31l2.214-19.928c1.527-4.818,5.874-8.871,7.749-13.285q2.214-9.961,4.429-19.927c1.908-4.484,6.909-7.849,8.856-12.178,2.235-4.968,1.609-10.158,4.429-14.392,18.407-27.64,37.079-55.221,60.889-77.495,3.254-3.044,5.485-8.3,8.856-11.071,4.043-3.319,9.09-4.676,13.285-7.749,11.169-8.182,21.149-19.128,33.213-26.57l13.284-4.428c2.239-1.254,4.452-5.274,6.643-6.642l15.5-4.428c3.048-1.581,5.805-6.175,8.857-7.75,4.328-2.234,7.98-.634,13.284-2.214,7.274-2.166,13.17-7.833,19.928-9.964,12.232-3.858,26.708-3.685,37.64-6.643C899.584,58.467,911.335,59.952,918.4,55.33ZM912.862,128.4c-4.853,2.92-14,.49-19.927,2.214-4.4,1.279-8.592,5.067-12.178,6.642-6.049,2.657-11.692,1.242-18.821,3.321-6.944,2.026-11.792,7.427-17.713,9.964l-9.963,2.214C825.3,156.594,816.468,165,808.8,170.465c-4.179,2.976-9.008,3.694-13.285,6.643l-7.75,8.856c-27.75,20.28-48.041,47.972-66.424,77.5l-3.321,12.178c-2.022,4.771-6.9,8.644-8.857,13.284l-3.321,15.5c-1.361,3.135-5.376,6.593-6.643,9.963-3.432,9.129-.831,17.812-3.321,28.784-9.688,42.684-4.427,104.927-4.428,154.991v54.246c-6.221,25.5-4.427,64.083-4.429,96.316V959.81c0,30.367-1.188,65.89,4.429,89.67,4.115,17.43,1.269,35.78,6.642,52.04,1.347,4.07,5.117,7.61,6.643,11.07q2.214,9.4,4.428,18.82c1.55,3.05,6.18,5.81,7.75,8.85q2.212,7.755,4.428,15.5c20.741,33.27,46.284,64.62,78.6,86.35,3.19,2.15,5.743,6.77,8.857,8.86,4.118,2.77,9.12,2.83,13.285,5.54,19.892,12.93,48.114,24.77,74.174,30.99,14.087,3.37,32.869,1.11,48.711,1.11h40.962c80.361-17.58,135.521-61.05,174.921-119.56q3.315-8.31,6.64-16.61c5.74-9.35,14.17-22.51,17.71-33.21q1.665-9.96,3.32-19.93c1.47-3.7,5.4-8.6,6.65-12.18,3.12-8.92-.07-18.16,2.21-28.78,5.13-23.87,1.11-65.942,1.11-92.994V392.988c0-11.085.89-25.075-1.11-34.32V342.062c-26.88-108.68-97.72-186.654-207.023-212.558C969.478,124.556,936.292,128.448,912.862,128.4Z"/>
</svg>
