<svg xmlns="http://www.w3.org/2000/svg" width="400" height="600" viewBox="503.986 46.979 882.029 1323.043">
  <defs>
    <style>
      .cls-1 {
        fill-rule: evenodd;
      }
    </style>
  </defs>
  <path id="Color_Fill_3" data-name="Color Fill 3" class="cls-1" d="M915.088,86.527l79.3,0.922c25.6,7.836,51.27,13.805,75.61,23.053,2.39,0.905,4.43,4.517,6.46,5.533l8.3,1.844,3.69,4.61q3.675,0.462,7.37.922c1.99,1.014,3.7,4.532,5.54,5.533q3.675,0.462,7.37.922c4.06,2.007,7.1,8.859,11.07,11.066q3.69,0.461,7.37.922,4.62,5.071,9.23,10.143c7.7,6.845,14.9,13.061,22.13,20.287,12.9,12.911,26.26,24.354,36.88,39.651q2.775,2.3,5.53,4.61c3.12,5.333,3.97,9.973,7.38,14.754,1.54,1.229,3.07,2.459,4.61,3.689q0.465,3.687.92,7.376,2.31,1.845,4.61,3.689c0.62,2.151,1.23,4.3,1.85,6.455,0.86,1.443,3.91,3.206,4.61,4.61,0.61,3.074,1.23,6.148,1.84,9.221,0.75,1.39,3.94,3.092,4.61,4.611l0.93,8.3c0.67,1.447,3.99,3.264,4.61,4.611,1.84,4.052.25,7.243,1.84,11.065,0.76,1.815,3.94,3.1,4.61,4.611,2.4,5.409-.05,11.565,1.85,16.6,0.89,2.365,3.79,4.8,4.61,7.377q0.45,8.3.92,16.6c9.23,29.387,4.61,81.7,4.61,118.953V954.238c0,62.232,3.76,122.272-15.68,165.062q-0.915,6.915-1.84,13.83c-0.96,2.75-4.42,4.86-5.53,7.38q-0.465,3.675-.93,7.37c-0.65,1.38-3.86,3.16-4.61,4.61-0.61,2.77-1.23,5.54-1.84,8.3-0.78,1.43-3.82,3.09-4.61,4.61-1.6,3.07-.99,5.72-2.77,8.3-1.23.92-2.46,1.85-3.69,2.77q-0.45,3.225-.92,6.45c-1.12,2.18-5.04,4.34-6.45,6.46-2.89,4.33-2.88,7.93-5.54,12.91-2.15,1.84-4.3,3.69-6.45,5.53-7.59,10.06-16.12,17.97-24.9,26.74-11.79,11.79-22.48,23.95-35.96,34.12q-3.225,3.69-6.46,7.38c-2.03,1.26-4.85-.29-7.37.92-3.99,1.92-7.22,8.64-11.07,11.06-2.76.62-5.53,1.23-8.3,1.85-1.82,1-3.52,4.57-5.53,5.53q-3.225.465-6.45,0.92c-1.82,1-3.52,4.63-5.54,5.54q-3.69.45-7.37,0.92c-1.39.73-3.1,3.94-4.61,4.61-2.77.31-5.54,0.61-8.3,0.92-1.46.67-3.26,3.98-4.61,4.61q-6.915.93-13.84,1.85c-2,.73-3.52,3.87-5.53,4.61-4.73,1.72-8.49.17-12.91,1.84-2.35.89-4.79,3.87-7.38,4.61H1007.3c-6.45,1.46-16.012,3.06-23.054,4.61H939.985c-18.335,0-37.076-.31-50.716-3.69H875.437c-4.623-1.22-8.872-4.98-13.832-6.45q-5.993-.465-11.987-0.92c-3.206-.97-7.516-4.39-11.066-5.54q-4.149-.45-8.3-0.92c-1.229-1.54-2.459-3.07-3.688-4.61-2.459-.31-4.919-0.61-7.377-0.92-1.517-.68-3.22-3.87-4.611-4.61-3.073-.62-6.148-1.23-9.221-1.85-1.437-.77-3.119-3.73-4.611-4.61l-8.3-2.76-2.766-3.69c-2.766-.62-5.533-1.23-8.3-1.85-3.946-2.2-7.013-9.11-11.065-11.06-2.519-1.21-5.345.35-7.377-.92q-4.149-4.62-8.3-9.22c-11.142-8.41-19.8-17.96-29.508-27.67-10.265-10.27-20.648-19.6-29.508-31.35-2.151-1.84-4.3-3.69-6.455-5.53-0.307-1.85-.614-3.69-0.922-5.54-2.5-4.24-7.844-8.75-10.143-12.91q-0.461-3.225-.922-6.45c-0.932-1.81-4.528-3.58-5.533-5.53l-0.922-6.46-3.688-2.76c-1.987-2.9-1.047-5.6-2.767-9.22-1.03-2.18-4.629-4.11-5.532-6.46l-0.923-8.3c-0.667-1.44-4-3.27-4.61-4.61-1.853-4.11-.175-8.23-1.844-11.99-0.792-1.78-3.948-3.11-4.611-4.61q-0.46-6.45-.922-12.91c-1.028-3.18-4.442-6.74-5.533-10.14q-0.461-7.845-.922-15.68c-0.567-2.12-3.117-6.38-3.688-8.3q-0.462-19.815-.923-39.65V460.906c0-37.512-4.975-91.216,4.611-120.8q0.461-7.837.922-15.676c0.429-1.086,3.125-3.305,3.689-4.611,2.109-4.883.807-9.922,2.766-15.676,0.757-2.224,3.782-5.17,4.611-7.377,1.659-4.417.1-8.2,1.844-12.909,0.553-1.5,2.967-2.508,3.688-3.689l1.845-8.3c1.034-2.184,4.572-4.109,5.532-6.455q0.462-3.687.922-7.377c0.688-1.393,3.847-3.135,4.611-4.61,1.3-2.5.437-5.126,1.844-7.377,1.137-1.819,4.5-3.67,5.533-5.533q0.461-2.766.922-5.532c2.49-4.507,8.757-9.233,11.065-13.832v-4.611l6.455-5.532c11.7-15.529,26.056-27.9,39.651-41.5,10.918-10.914,19.979-20.583,34.118-28.585,4.13-2.337,7.883-9.053,11.988-11.066l8.3-.922c2.214-1.131,4.036-5.276,6.455-6.455l5.532-.922c1.711-.995,3.589-3.817,5.533-4.61l6.455-.922c2.048-1.1,4.046-4.6,6.455-5.533,3.476-1.342,5.617-.162,8.3-1.844,1.181-.741,2.183-3.146,3.688-3.689,5.051-1.819,9.345.211,13.832-1.844,0.953-.437,2.732-3.274,3.689-3.689l13.831-1.844c3.922-1.146,9.092-4.377,12.91-5.533l13.832-.922c1.73-.636,4.453-3.134,6.454-3.688C902.328,85.875,910.792,89.225,915.088,86.527Z"/>
</svg>
