<svg xmlns="http://www.w3.org/2000/svg" width="400" height="600" viewBox="503.986 46.979 882.029 1323.043">
  <defs>
    <style>
      .cls-1 {
        fill-rule: evenodd;
      }
    </style>
  </defs>
  <path id="hollow_wave_shape" data-name="hollow wave shape" class="cls-1" d="M781.923,59.6c205.89-3.446,369.767,104.384,422.007,249.76,14.08,39.176,21.57,95.66,19.84,87.862,16.05,72.321,6,198.644,6,179.124-9.25,39.557-13.86,86.478-28.71,123.445-18.11,45.071-41.43,86.1-54.54,137.8-7.38,29.093,3.09,67.686,8.61,86.124,17.51,58.506,26.42,100.351,54.54,146.411,16.55,27.1,43.82,54.76,54.55,86.12,23.95,70.03-19.92,125.41-54.55,149.29-18.7,12.9-42.87,29.37-66.03,37.32-63.45,21.77-167.629,17.06-229.66,0-126.966-34.92-220.368-98.65-264.115-215.31q-4.305-17.235-8.612-34.45c-3.6-19.01-6.342-37.98-8.26-57.22-2.008-20.15-3.079-40.238-3.223-60.487q2.871-27.272,5.741-54.545c8.635-60.924,24.674-117.364,48.8-169.378,15.747-33.944,31.149-68.247,45.933-103.349,4.134-9.814,21.968-59.628,22.967-103.349,0.089-3.9.089-7.675,0-11.483-0.575-24.346-4.67-44.608-11.484-68.9-7.105-25.33-15.593-51.679-22.914-69.607-16.432-40.243-36.592-74.877-60.339-111.254-17.3-26.5-50.73-62.937-37.321-117.7,13.324-54.418,74.422-88.172,111.962-97.608,7.664-1.927,18.858-4.106,28.708-5.742C768.6,61.352,775.186,60.409,781.923,59.6Zm-40.192,86.124c-8.529,3.239-17.433,10.283-27.038,18.811a144.652,144.652,0,0,0-21.766,24.251c14.146,27.4,29.206,53.594,45.368,78.868,17.153,26.824,32.09,47.763,46.5,76.156,15.976,31.481,28.235,79.9,37.321,114.832l2.871,37.321a405.075,405.075,0,0,1-2.871,103.349c-5.656,36-20.583,79.1-25.837,91.866C748.148,808.176,657.72,995.454,738.86,1139.03c30.841,54.57,96.221,100.04,157.895,123.44,35.766,13.58,69.4,21.22,100.478,22.97,7.347,0.42,22.407.26,34.447,0,36.88-.78,60.32-0.33,89-11.48a173.751,173.751,0,0,0,28.71-14.36c1.9-2,3.79-3.88,5.74-5.74,1.56-1.49,3.53-3.33,4.63-4.42,1.34-1.33,2.65-2.69,3.95-4.09a155.526,155.526,0,0,0,31.61-51.77c-5.87-9.61-11.55-19.09-17.23-28.71-21.67-36.78-44.05-77.07-56.96-105.52a737.009,737.009,0,0,1-32.03-83.957c-8.62-27.761-25.5-93.05-20.1-123.444,17.38-97.752,57.33-160.155,80.39-249.761q2.865-15.789,5.74-31.579c1.44-14.411,2.38-28.581,2.87-43.062a622.8,622.8,0,0,0-5.74-109.091c-3.58-25.056-9.01-50.718-14.36-66.029-9.7-27.77-25.27-56.674-47.5-84.833-50.94-64.5-125.324-104.1-216.611-130.477a103.012,103.012,0,0,0-17.225-5.742,144.958,144.958,0,0,0-20.1-2.871c4.753,0.4-22.77-1.085-43.062,2.871-6.407,1.249-12.653,2.612-19.109,4.164A289.577,289.577,0,0,0,741.731,145.729Z"/>
</svg>
