<svg xmlns="http://www.w3.org/2000/svg" width="400" height="600" viewBox="503.986 46.979 882.029 1323.043">
  <defs>
    <style>
      .cls-1 {
        fill-rule: evenodd;
      }
    </style>
  </defs>
  <path id="Color_Fill_1" data-name="Color Fill 1" class="cls-1" d="M936,110c-4.082-1.369,33.387,12.279,55,23,177.69,88.138,206.31,278.2,192,221,8.74,34.944,10.2,50.932,13,69,14.05,76.834,10.84,191.705-56.35,304-20.59,34.421-27.82,72.706-30.22,112.062-5.09,83.722,27.5,180.726,116.57,317.936,100.15,154.29-190.5,208.69-369,141-35.291-13.38-65.6-36.53-94-58-5.5-6-41.228-39.3-50-52,0.238,0.34-17.238-27.22-25-45-3-6.88-12.889-32.17-14-38-0.687-3.6-5.831-26-9-37-0.4-8.06-3.75-32.36-4-34q-0.5-15-1-30c-2.6-5.853,8.6-86.48,6-75,0.712-19.93,9.857-54.86,22.351-93.076C700.611,798.425,716.1,757.762,730,725c3.307-7.793,8.635-16.293,12-24,45.329-103.831,38-156.836,38-186,0-32.3-9.417-72.665-9-66-1.215-4.9-1.954-11.215-4-16-8.729-20.411-8.318-23.39-12-32-14.6-34.135-33.567-65.848-53-95-0.986-1.478-101.1-95.792-37.743-164.188C682.481,122.139,788.4,60.507,936,110Z"/>
</svg>
